<?xml version="1.0" standalone="no"?>
<!DOCTYPE svg PUBLIC "-//W3C//DTD SVG 20010904//EN"
 "http://www.w3.org/TR/2001/REC-SVG-20010904/DTD/svg10.dtd">
<svg version="1.0" xmlns="http://www.w3.org/2000/svg"
 width="365.000000pt" height="80.000000pt" viewBox="0 0 365.000000 80.000000"
 preserveAspectRatio="xMidYMid meet">

<g transform="translate(0.000000,80.000000) scale(0.100000,-0.100000)"
fill="#000000" stroke="none">
<path d="M1150 776 c-8 -8 -121 -53 -250 -101 -378 -138 -366 -132 -392 -216
-11 -38 -23 -49 -30 -29 -2 6 -98 45 -213 86 -116 42 -222 85 -237 95 l-26 19
5 -42 c9 -72 42 -144 82 -185 32 -32 64 -47 191 -92 119 -43 160 -62 186 -88
34 -33 34 -35 34 -125 l0 -91 24 26 c29 32 78 56 184 93 131 45 189 109 206
227 l7 47 -33 -20 c-18 -10 -103 -44 -187 -75 -85 -30 -160 -60 -168 -67 -23
-19 -25 -1 -5 45 11 24 32 53 48 64 16 11 130 57 254 102 155 57 234 90 253
109 41 39 78 116 84 178 6 58 5 61 -17 40z"/>
<path d="M2374 583 c-40 -7 -67 -48 -72 -108 -4 -52 -3 -55 24 -65 39 -15 93
0 117 32 25 33 34 110 16 125 -18 13 -58 21 -85 16z m62 -38 c9 -23 -5 -82
-23 -100 -9 -10 -28 -15 -47 -13 -30 3 -31 5 -30 50 0 25 6 53 13 62 17 21 80
21 87 1z"/>
<path d="M3400 583 c-79 -15 -79 -103 0 -103 16 0 21 -5 18 -22 -3 -20 -10
-23 -50 -26 -53 -3 -63 -17 -20 -26 41 -9 85 7 100 36 17 36 6 56 -34 64 -19
3 -37 10 -40 16 -11 18 19 38 57 38 22 0 39 5 39 10 0 6 -4 10 -9 10 -5 0 -15
2 -23 4 -7 2 -24 1 -38 -1z"/>
<path d="M1422 529 c-19 -83 -16 -108 16 -120 34 -13 97 4 107 29 3 9 12 45
19 80 11 51 11 62 0 62 -14 0 -19 -14 -30 -75 -10 -59 -21 -75 -52 -75 -45 0
-51 14 -36 78 17 71 17 72 1 72 -8 0 -18 -21 -25 -51z"/>
<path d="M1612 518 c-7 -35 -15 -73 -18 -85 -5 -17 -2 -23 9 -23 11 0 18 13
22 38 4 20 11 53 16 72 12 48 11 60 -4 60 -9 0 -18 -23 -25 -62z"/>
<path d="M1686 541 l-37 -38 22 -47 c15 -29 30 -46 41 -46 15 0 16 4 7 27 -6
16 -17 35 -25 45 -14 14 -11 20 28 57 36 34 40 41 23 41 -12 0 -38 -17 -59
-39z"/>
<path d="M1782 518 c-7 -35 -15 -73 -18 -85 -10 -37 20 -28 31 9 14 44 31 46
56 4 13 -22 29 -36 41 -36 20 0 20 0 -1 36 -12 20 -21 37 -19 38 33 14 43 27
43 57 l0 34 -61 3 -60 3 -12 -63z m103 32 c3 -6 3 -19 0 -30 -5 -15 -15 -20
-41 -20 -34 0 -41 10 -28 44 7 18 59 22 69 6z"/>
<path d="M1962 518 c-7 -35 -15 -73 -18 -85 -5 -17 -2 -23 9 -23 9 0 18 13 22
30 6 28 10 30 49 30 54 0 79 24 74 72 l-3 33 -61 3 -60 3 -12 -63z m106 19 c5
-26 -16 -47 -49 -47 -30 0 -37 17 -23 55 9 23 68 16 72 -8z"/>
<path d="M2145 568 c-2 -7 -9 -40 -16 -73 -6 -33 -14 -65 -16 -72 -3 -7 2 -13
11 -13 10 0 19 11 23 30 3 17 9 33 13 35 16 10 38 -7 50 -36 8 -18 20 -29 32
-29 20 0 20 1 -1 36 -26 43 -25 41 -1 47 28 7 47 52 30 72 -16 19 -119 21
-125 3z m90 -38 c0 -22 -5 -25 -37 -28 -40 -3 -42 -1 -32 36 5 19 12 23 38 20
26 -2 31 -7 31 -28z"/>
<path d="M2512 518 c-7 -35 -15 -73 -18 -85 -5 -16 -2 -23 9 -23 10 0 18 19
26 60 7 33 16 58 20 55 5 -2 11 -27 15 -55 4 -27 11 -50 16 -50 5 0 26 25 46
55 21 30 39 54 41 52 2 -2 -2 -28 -8 -56 -11 -51 -7 -74 10 -55 4 5 13 36 20
69 7 33 15 68 17 78 4 12 0 17 -15 17 -14 0 -33 -18 -57 -55 -20 -30 -38 -55
-40 -55 -1 0 -8 25 -14 55 -10 47 -15 55 -34 55 -20 0 -24 -8 -34 -62z"/>
<path d="M2755 558 c-34 -153 -33 -149 -17 -146 22 4 56 168 36 168 -8 0 -16
-10 -19 -22z"/>
<path d="M2835 558 c-33 -143 -33 -148 -20 -148 9 0 19 22 27 60 6 33 15 60
19 60 4 0 17 -27 29 -60 16 -44 27 -60 41 -60 11 0 21 9 24 23 34 153 33 148
16 145 -11 -2 -19 -20 -25 -61 -5 -31 -12 -57 -15 -57 -3 0 -15 26 -27 58 -15
42 -26 58 -42 60 -15 2 -23 -3 -27 -20z"/>
<path d="M3015 558 c3 -13 9 -50 13 -83 6 -51 10 -60 29 -63 17 -3 29 10 62
67 52 87 57 101 40 101 -8 0 -32 -33 -54 -73 l-39 -72 -8 50 c-11 78 -17 95
-33 95 -11 0 -14 -7 -10 -22z"/>
<path d="M3187 505 c-10 -42 -17 -80 -17 -85 0 -13 117 -13 125 0 4 6 -13 10
-44 10 -53 0 -54 1 -45 38 5 17 14 22 40 22 19 0 34 5 34 10 0 6 -14 10 -31
10 -26 0 -30 3 -27 23 2 18 10 22 48 25 73 5 72 22 -1 22 l-66 0 -16 -75z"/>
<path d="M3495 570 c-4 -6 7 -10 24 -10 35 0 35 -1 17 -87 -11 -53 -11 -63 0
-63 8 0 16 12 20 28 22 101 30 117 54 120 14 2 29 8 35 13 5 5 -21 9 -67 9
-42 0 -80 -4 -83 -10z"/>
<path d="M1493 342 c-16 -2 -35 -26 -68 -84 -49 -88 -49 -88 -35 -88 6 0 16
11 22 25 9 21 18 25 54 25 38 0 44 -3 50 -25 3 -14 12 -25 18 -25 9 0 9 20 -1
86 -6 48 -13 87 -15 88 -2 1 -13 0 -25 -2z m7 -39 c0 -10 3 -28 6 -40 6 -21 3
-23 -30 -23 l-36 0 20 40 c21 42 40 52 40 23z"/>
<path d="M1633 338 c-24 -11 -53 -74 -53 -112 0 -37 26 -56 75 -56 50 0 52 2
61 58 7 42 6 42 -25 42 -17 0 -31 -4 -31 -10 0 -5 7 -10 16 -10 27 0 14 -54
-14 -58 -38 -6 -55 16 -49 62 7 53 39 80 84 73 25 -4 33 -2 33 9 0 17 -63 18
-97 2z"/>
<path d="M1780 298 c-20 -94 -23 -128 -12 -128 6 0 14 16 18 35 5 27 11 35 28
35 16 0 27 -11 39 -35 21 -43 52 -50 36 -8 -6 15 -15 33 -20 39 -7 9 -4 14 11
19 23 7 43 47 34 69 -4 10 -25 15 -64 18 l-59 3 -11 -47z m106 11 c3 -5 0 -18
-6 -29 -14 -25 -80 -29 -80 -4 0 34 18 51 50 46 16 -2 33 -8 36 -13z"/>
<path d="M1994 340 c-23 -9 -54 -75 -54 -114 0 -48 52 -70 113 -47 26 10 57
73 57 115 0 48 -56 70 -116 46z m70 -16 c19 -7 21 -61 4 -98 -13 -30 -39 -40
-75 -31 -24 6 -25 9 -20 51 7 67 42 97 91 78z"/>
</g>
</svg>
